<?xml version="1.0" encoding="UTF-8"?>
<svg id="Capa_2" data-name="Capa 2" xmlns="http://www.w3.org/2000/svg" viewBox="0 0 343.22 285.41">
  <defs>
    <style>
      .cls-1 {
        fill: #f3282e;
      }
    </style>
  </defs>
  <g id="Capa_2-2" data-name="Capa 2">
    <path class="cls-1" d="M173.32.46c-1.05-.61-2.36-.61-3.41,0l-67.87,39.02c-2.22,1.27-3.59,3.64-3.59,6.21v84.06c0,3.71,1.97,7.14,5.18,9l55.85,32.45c2.92,1.7,6.53,1.69,9.44-.03l75.87-44.9V44.46c0-1.8-.96-3.47-2.53-4.37L173.32.46ZM171.61,11.32l55.1,31.92-55.1,31.92-55.24-31.84,55.24-32ZM108.91,51.46l51.89,29.58-32.28,19-19.6-11.1v-37.48ZM162.63,160.63l-53.72-31.4v-28.05l53.72,31.61v27.84ZM172.8,156.49v-27.89c0-1.63-.86-3.14-2.25-3.98l-30.93-18.5,31.92-18.66,59.62,34.51-58.36,34.51ZM234.71,111.65l-52.74-30.61,52.74-30.61v61.22Z"/>
    <g>
      <path class="cls-1" d="M27.73,191.97c11.75,0,21.45,7.4,21.45,22.37s-9.15,23.21-21.67,23.81h-14.6v25.19H0v-71.37h27.73ZM26.08,226.53c5.66,0,10.47-3.86,10.47-12.49.2-7.19-4.81-11.04-10.47-11.04h-13.68v23.53h13.68Z"/>
      <path class="cls-1" d="M53.64,236.91c0-15.8,8.69-27.57,25.44-27.57s26.87,11.58,26.87,27.37-10.11,27.47-26.87,27.47-25.44-11.58-25.44-27.28ZM66.68,236.82c0,9.4,4.03,16.75,13.12,16.75s13.38-7.36,13.38-16.75-4.03-16.87-13.12-16.87-13.38,7.36-13.38,16.87Z"/>
      <path class="cls-1" d="M213.69,236.91c0-15.8,8.69-27.57,25.44-27.57s26.87,11.58,26.87,27.37-10.11,27.47-26.87,27.47-25.44-11.58-25.44-27.28ZM226.73,236.82c0,9.4,4.03,16.75,13.12,16.75s13.38-7.36,13.38-16.75-4.03-16.87-13.12-16.87-13.38,7.36-13.38,16.87Z"/>
      <path class="cls-1" d="M113.88,263.34v-73.04h12.8v73.04h-12.8Z"/>
      <path class="cls-1" d="M192.5,263.34v-73.04h12.8v73.04h-12.8Z"/>
      <path class="cls-1" d="M173.26,210.25h13.73l-20.47,53.09c-2.88,9.31-12.25,22.07-21.49,22.07-2.8,0-4.85-.55-6.37-1v-11.22c.99.27,2.27.55,3.64.55,2.92,0,9.26-2,10.81-8.98.19-.87.09-1.78-.24-2.6l-20.37-51.89h14.4l13.18,39.04,13.18-39.04Z"/>
      <path class="cls-1" d="M277.33,220.78h-7.94v-10.5h7.41v-5.2c0-10.68,8.7-16.66,19.76-16.66,3.18,0,5.32-.04,7.12.27v10.72c-.91-.27-2.7-.6-4.19-.72-4.17,0-9.43.16-9.45,6.48v5.17h12.36v10.43h-12.37v42.56h-12.71v-42.56Z"/>
      <path class="cls-1" d="M307.48,210.32h10.16v-13.79h13.03v13.74h12.55v10.64h-12.55v23.96c-.11,7.25,1.9,10.31,9.05,8.51,1.37-.34,2.35-.77,3.29-1.02l.13,10.44c-2.05.64-4.83,1.09-7.78,1.09-8.47,0-14.08-2.12-16.64-9.31-.76-2.13-1.08-4.39-1.08-6.65v-27.01h-10.16v-10.59Z"/>
    </g>
  </g>
</svg>