<?xml version="1.0" encoding="UTF-8"?>
<svg id="Capa_2" data-name="Capa 2" xmlns="http://www.w3.org/2000/svg" viewBox="0 0 668.62 203.5">
  <defs>
    <style>
      .cls-1 {
        fill: #f3282e;
      }
    </style>
  </defs>
  <g id="Capa_2-2" data-name="Capa 2">
    <g>
      <path class="cls-1" d="M88.34.54c-1.24-.72-2.78-.72-4.02,0L4.24,46.58c-2.62,1.5-4.24,4.3-4.24,7.33v99.18c0,4.38,2.33,8.42,6.11,10.62l65.9,38.29c3.45,2.01,7.71,1.99,11.14-.04l89.51-52.98V52.45c0-2.13-1.14-4.09-2.98-5.15L88.34.54ZM86.33,13.36l65.01,37.66-65.01,37.66L21.15,51.11,86.33,13.36ZM12.35,60.72l61.22,34.9-38.09,22.42-23.13-13.1v-44.22ZM75.73,189.52l-63.38-37.05v-33.09l63.38,37.29v32.85ZM87.73,184.63v-32.9c0-1.92-1.01-3.7-2.66-4.69l-36.49-21.83,37.66-22.02,70.34,40.72-68.85,40.72ZM160.78,131.73l-62.22-36.11,62.22-36.12v72.23Z"/>
      <g>
        <path class="cls-1" d="M267.02,58.71c14.95,0,27.3,9.42,27.3,28.47s-11.65,29.54-27.59,30.31h-18.58v32.07h-16.44V58.71h35.3ZM264.92,102.71c7.2,0,13.33-4.92,13.33-15.9.26-9.15-6.12-14.05-13.33-14.05h-17.41v29.95h17.41Z"/>
        <path class="cls-1" d="M300,115.92c0-20.11,11.06-35.1,32.38-35.1s34.2,14.74,34.2,34.85-12.87,34.97-34.2,34.97-32.38-14.74-32.38-34.72ZM316.6,115.8c0,11.96,5.13,21.32,16.7,21.32s17.03-9.37,17.03-21.32-5.13-21.47-16.7-21.47-17.03,9.37-17.03,21.47Z"/>
        <path class="cls-1" d="M503.73,115.92c0-20.11,11.06-35.1,32.38-35.1s34.2,14.74,34.2,34.85-12.87,34.97-34.2,34.97-32.38-14.74-32.38-34.72ZM520.34,115.8c0,11.96,5.13,21.32,16.7,21.32s17.03-9.37,17.03-21.32-5.13-21.47-16.7-21.47-17.03,9.37-17.03,21.47Z"/>
        <path class="cls-1" d="M376.68,149.56V56.59h16.29v92.97h-16.29Z"/>
        <path class="cls-1" d="M476.75,149.56V56.59h16.29v92.97h-16.29Z"/>
        <path class="cls-1" d="M452.27,81.99h17.48l-26.05,67.57c-3.67,11.85-15.59,28.09-27.36,28.09-3.57,0-6.17-.7-8.1-1.28v-14.29c1.25.35,2.89.7,4.63.7,3.72,0,11.79-2.55,13.75-11.43.24-1.11.11-2.26-.3-3.32l-25.93-66.05h18.33l16.78,49.69,16.78-49.69Z"/>
        <path class="cls-1" d="M584.74,95.38h-10.11v-13.36h9.44v-6.62c0-13.59,11.07-21.2,25.15-21.2,4.05,0,6.77-.05,9.07.35v13.65c-1.16-.35-3.44-.76-5.33-.92-5.31,0-12,.2-12.03,8.25v6.58h15.73v13.28h-15.74v54.18h-16.18v-54.18Z"/>
        <path class="cls-1" d="M623.13,82.07h12.93v-17.56h16.59v17.48h15.98v13.54h-15.98v30.5c-.15,9.23,2.42,13.12,11.52,10.83,1.74-.44,2.99-.97,4.19-1.3l.16,13.29c-2.61.81-6.15,1.39-9.91,1.39-10.78,0-17.93-2.7-21.18-11.86-.96-2.71-1.38-5.59-1.38-8.46v-34.38h-12.93v-13.49Z"/>
      </g>
    </g>
  </g>
</svg>