<?xml version="1.0" encoding="UTF-8"?>
<svg id="Capa_2" data-name="Capa 2" xmlns="http://www.w3.org/2000/svg" viewBox="0 0 172.66 203.5">
  <defs>
    <style>
      .cls-1 {
        fill: #f3282e;
      }
    </style>
  </defs>
  <g id="Capa_2-2" data-name="Capa 2">
    <path class="cls-1" d="M88.34.54c-1.24-.72-2.78-.72-4.02,0L4.24,46.58c-2.62,1.5-4.24,4.3-4.24,7.33v99.18c0,4.38,2.33,8.42,6.11,10.62l65.9,38.29c3.45,2.01,7.71,1.99,11.14-.04l89.51-52.98V52.45c0-2.13-1.14-4.09-2.98-5.15L88.34.54ZM86.33,13.36l65.01,37.66-65.01,37.66L21.15,51.11,86.33,13.36ZM12.35,60.72l61.22,34.9-38.09,22.42-23.13-13.1v-44.22ZM75.73,189.52l-63.38-37.05v-33.09l63.38,37.29v32.85ZM87.73,184.63v-32.9c0-1.92-1.01-3.7-2.66-4.69l-36.49-21.83,37.66-22.02,70.34,40.72-68.85,40.72ZM160.78,131.73l-62.22-36.11,62.22-36.12v72.23Z"/>
  </g>
</svg>