<?xml version="1.0" encoding="UTF-8"?>
<svg id="Capa_2" data-name="Capa 2" xmlns="http://www.w3.org/2000/svg" viewBox="0 0 436.9 123.45">
  <defs>
    <style>
      .cls-1 {
        fill: #f3282e;
      }
    </style>
  </defs>
  <g id="Capa_2-2" data-name="Capa 2">
    <g>
      <path class="cls-1" d="M35.3,4.51c14.95,0,27.3,9.42,27.3,28.47s-11.65,29.54-27.59,30.31h-18.58v32.07H0V4.51h35.3ZM33.2,48.51c7.2,0,13.33-4.92,13.33-15.9.26-9.15-6.12-14.05-13.33-14.05H15.79v29.95h17.41Z"/>
      <path class="cls-1" d="M68.28,61.71c0-20.11,11.06-35.1,32.38-35.1s34.2,14.74,34.2,34.85-12.87,34.97-34.2,34.97-32.38-14.74-32.38-34.72ZM84.88,61.6c0,11.96,5.13,21.32,16.7,21.32s17.03-9.37,17.03-21.32-5.13-21.47-16.7-21.47-17.03,9.37-17.03,21.47Z"/>
      <path class="cls-1" d="M272.02,61.71c0-20.11,11.06-35.1,32.38-35.1s34.2,14.74,34.2,34.85-12.87,34.97-34.2,34.97-32.38-14.74-32.38-34.72ZM288.62,61.6c0,11.96,5.13,21.32,16.7,21.32s17.03-9.37,17.03-21.32-5.13-21.47-16.7-21.47-17.03,9.37-17.03,21.47Z"/>
      <path class="cls-1" d="M144.96,95.36V2.39h16.29v92.97h-16.29Z"/>
      <path class="cls-1" d="M245.04,95.36V2.39h16.29v92.97h-16.29Z"/>
      <path class="cls-1" d="M220.55,27.78h17.48l-26.05,67.57c-3.67,11.85-15.59,28.09-27.36,28.09-3.57,0-6.17-.7-8.1-1.28v-14.29c1.25.35,2.89.7,4.63.7,3.72,0,11.79-2.55,13.75-11.43.24-1.11.11-2.26-.3-3.32l-25.93-66.05h18.33l16.78,49.69,16.78-49.69Z"/>
      <path class="cls-1" d="M353.02,41.18h-10.11v-13.36h9.44v-6.62C352.35,7.62,363.42,0,377.51,0c4.05,0,6.77-.05,9.07.35v13.65c-1.16-.35-3.44-.76-5.33-.92-5.31,0-12,.2-12.03,8.25v6.58h15.73v13.28h-15.74v54.18h-16.18v-54.18Z"/>
      <path class="cls-1" d="M391.41,27.87h12.93V10.31h16.59v17.48h15.98v13.54h-15.98v30.5c-.15,9.23,2.42,13.12,11.52,10.83,1.74-.44,2.99-.97,4.19-1.3l.16,13.29c-2.61.81-6.15,1.39-9.91,1.39-10.78,0-17.93-2.7-21.18-11.86-.96-2.71-1.38-5.59-1.38-8.46v-34.38h-12.93v-13.49Z"/>
    </g>
  </g>
</svg>